<svg width="224" height="92" viewBox="0 0 224 92" fill="none" xmlns="http://www.w3.org/2000/svg">
<g filter="url(#filter0_d_54_13154)">
<path d="M33.5058 67.2638V67.6174C33.4514 68.1522 33.252 68.6054 32.9166 68.959C32.563 69.3034 32.146 69.4848 31.6656 69.4848H31.584C31.031 69.5391 30.7591 69.8201 30.7591 70.3368V72.313H32.0735V74.6427H30.7591V81.0244H27.3144V74.6427H26V72.313H27.3144V69.7386C27.3144 69.7386 27.3325 69.5754 27.3597 69.3941C27.5229 68.4513 28.239 67.7443 29.49 67.2548C29.8345 67.1732 30.1971 67.1279 30.605 67.1279H33.3607C33.3607 67.1279 33.4333 67.1369 33.4604 67.1641C33.4876 67.1913 33.4967 67.2185 33.4967 67.2638H33.5058ZM45.7525 80.9882H45.1995C44.4381 80.9156 43.8035 80.6256 43.305 80.1361C43.2053 80.0363 43.1237 79.9366 43.0421 79.8369C42.9424 80.0363 42.8155 80.2176 42.6523 80.3808C42.3078 80.7253 41.8908 80.9156 41.4104 80.97C41.3107 80.97 41.22 80.9791 41.1385 80.9791H36.4337C35.6723 80.9066 35.0377 80.6165 34.5392 80.127C34.0497 79.6284 33.7596 79.0392 33.6871 78.3684C33.6871 78.2234 33.678 78.0964 33.678 77.9786V75.3679C33.678 75.2501 33.678 75.1231 33.6871 74.9781C33.7596 74.3073 34.0497 73.7181 34.5392 73.2195C35.0377 72.73 35.6723 72.4399 36.4337 72.3674H43.1237C43.8851 72.4399 44.5197 72.73 45.0182 73.2195C45.5078 73.7181 45.7978 74.3073 45.8703 74.9781C45.8703 75.1231 45.8794 75.2501 45.8794 75.3679V80.8431C45.8794 80.8431 45.8704 80.9156 45.8432 80.9428C45.816 80.97 45.7888 80.9791 45.7434 80.9791L45.7525 80.9882ZM42.4347 78.5588V75.3951C42.4347 75.2319 42.3803 75.0959 42.2625 74.9872C42.1447 74.8693 42.0087 74.8149 41.8546 74.8149H37.7119C37.5487 74.8149 37.4128 74.8693 37.304 74.9872C37.1861 75.105 37.1317 75.241 37.1317 75.3951V77.9877C37.1317 78.1508 37.1861 78.2868 37.304 78.3956C37.4218 78.5134 37.5578 78.5678 37.7119 78.5678H42.4347V78.5588ZM48.0459 72.3674H48.5989C49.3604 72.4399 49.9949 72.73 50.4935 73.2195C50.6204 73.3464 50.7292 73.4733 50.8198 73.5821C51.1643 73.0926 51.7172 72.73 52.4787 72.5034C52.8232 72.4127 53.222 72.3674 53.6934 72.3674V74.5974C53.1404 74.7062 52.6509 74.9781 52.2249 75.4042C51.69 75.939 51.4 76.5826 51.3546 77.3259V81.0063H47.9009V72.5124C47.9009 72.5124 47.91 72.4399 47.9372 72.4127C47.9643 72.3855 47.9915 72.3765 48.0369 72.3765L48.0459 72.3674ZM67.7894 80.9882H67.2364C66.475 80.9156 65.8404 80.6256 65.3418 80.1361C65.2421 80.0363 65.1605 79.9366 65.079 79.8369C64.9792 80.0363 64.8523 80.2176 64.6892 80.3808C64.3447 80.7253 63.9277 80.9156 63.4473 80.97C63.3476 80.97 63.2569 80.9791 63.1753 80.9791H58.4706C57.7092 80.9066 57.0746 80.6165 56.576 80.127C56.0865 79.6284 55.7965 79.0392 55.7239 78.3684C55.7239 78.2234 55.7149 78.0964 55.7149 77.9786V75.3679C55.7149 75.2501 55.7149 75.1231 55.7239 74.9781C55.7965 74.3073 56.0865 73.7181 56.576 73.2195C57.0746 72.73 57.7092 72.4399 58.4706 72.3674H65.1605C65.922 72.4399 66.5565 72.73 67.0551 73.2195C67.5446 73.7181 67.8347 74.3073 67.9072 74.9781C67.9072 75.1231 67.9163 75.2501 67.9163 75.3679V80.8431C67.9163 80.8431 67.9072 80.9156 67.88 80.9428C67.8528 80.97 67.8256 80.9791 67.7803 80.9791L67.7894 80.9882ZM64.4716 78.5588V75.3951C64.4716 75.2319 64.4172 75.0959 64.2994 74.9872C64.1815 74.8693 64.0456 74.8149 63.8915 74.8149H59.7488C59.5856 74.8149 59.4496 74.8693 59.3409 74.9872C59.223 75.105 59.1686 75.241 59.1686 75.3951V77.9877C59.1686 78.1508 59.223 78.2868 59.3409 78.3956C59.4587 78.5134 59.5947 78.5678 59.7488 78.5678H64.4716V78.5588ZM70.5361 80.8703V80.7434C70.5904 80.2176 70.7899 79.7735 71.1343 79.429C71.4788 79.0845 71.8958 78.8942 72.3762 78.8398C72.476 78.8398 72.6391 78.8216 72.8748 78.8035H77.8787C78.0418 78.8035 78.1778 78.7491 78.2866 78.6494C78.3954 78.5497 78.4588 78.4137 78.4588 78.2596V78.1146C78.4588 77.8245 78.3228 77.6795 78.06 77.6795H72.6663L72.1587 77.6613C71.7417 77.5707 71.3972 77.3894 71.1253 77.1174C70.7808 76.773 70.5904 76.3832 70.5451 75.9209C70.5451 75.8755 70.5451 75.7939 70.5361 75.6852V75.0144L70.5814 74.7424C70.6992 74.1713 70.9712 73.6728 71.3972 73.2286C71.8595 72.7753 72.4397 72.5034 73.1377 72.4127L73.3915 72.3946H81.7856C81.7856 72.3946 81.8582 72.4037 81.8854 72.4309C81.9126 72.4581 81.9216 72.4943 81.9216 72.5306V72.6575C81.8672 73.1832 81.6678 73.6274 81.3233 73.9719C80.9789 74.3164 80.5619 74.5067 80.0814 74.5611C79.9817 74.5792 79.8911 74.5883 79.8095 74.5974H74.579C74.4159 74.5974 74.2799 74.6518 74.1711 74.7515C74.0532 74.8512 73.9989 74.9872 73.9989 75.1413V75.2863C73.9989 75.5764 74.1348 75.7214 74.3977 75.7214H79.882C80.1177 75.7396 80.2355 75.7486 80.2446 75.7577C80.6797 75.8302 81.0514 76.0115 81.3324 76.2925C81.6769 76.637 81.8672 77.0268 81.9126 77.4891C81.9126 77.5253 81.9126 77.6069 81.9216 77.7248V78.2777L81.9035 78.5044L81.8854 78.6675C81.7675 79.2386 81.4956 79.7372 81.0695 80.1814C80.6072 80.6346 80.0271 80.9066 79.329 80.9972L79.1931 81.0154H70.6902C70.6902 81.0154 70.6176 81.0063 70.5904 80.9791C70.5633 80.9519 70.5542 80.9247 70.5542 80.8794L70.5361 80.8703ZM83.4536 75.3498C83.4536 75.2319 83.4536 75.105 83.4627 74.96C83.5352 74.2892 83.8253 73.6999 84.3148 73.2014C84.8133 72.7119 85.4479 72.4218 86.2093 72.3493H92.863C93.6245 72.4218 94.259 72.7119 94.7576 73.2014C95.2471 73.6999 95.5372 74.2892 95.6097 74.96C95.6097 75.0234 95.6097 75.0778 95.6188 75.1322V78.3593H95.6097V78.3956C95.5372 79.0664 95.2471 79.6556 94.7576 80.1542C94.259 80.6437 93.6245 80.9338 92.863 81.0063H86.2093C85.4479 80.9338 84.8133 80.6437 84.3148 80.1542C83.8253 79.6556 83.5352 79.0664 83.4627 78.3956C83.4627 78.2505 83.4536 78.1236 83.4536 78.0058V75.3498ZM86.9073 77.9967C86.9073 78.1599 86.9617 78.2959 87.0796 78.4046C87.1974 78.5225 87.3334 78.5769 87.4875 78.5769H91.6121C91.7752 78.5769 91.9112 78.5225 92.02 78.4046C92.1378 78.2959 92.1922 78.1508 92.1922 77.9967V75.3588C92.1922 75.1957 92.1378 75.0597 92.02 74.9509C91.9021 74.8421 91.7662 74.7787 91.6121 74.7787H87.4875C87.3243 74.7787 87.1884 74.8331 87.0796 74.9509C86.9708 75.0688 86.9073 75.2047 86.9073 75.3588V77.9967ZM97.1689 75.3498C97.1689 75.2319 97.1689 75.105 97.1779 74.96C97.2504 74.2892 97.5405 73.6999 98.03 73.2014C98.5286 72.7119 99.1631 72.4218 99.9246 72.3493H106.578C107.34 72.4218 107.974 72.7119 108.473 73.2014C108.962 73.6999 109.252 74.2892 109.325 74.96C109.325 75.0234 109.325 75.0778 109.334 75.1322V78.3593H109.325V78.3956C109.252 79.0664 108.962 79.6556 108.473 80.1542C107.974 80.6437 107.34 80.9338 106.578 81.0063H99.9246C99.1631 80.9338 98.5286 80.6437 98.03 80.1542C97.5405 79.6556 97.2504 79.0664 97.1779 78.3956C97.1779 78.2505 97.1689 78.1236 97.1689 78.0058V75.3498ZM100.623 77.9967C100.623 78.1599 100.677 78.2959 100.795 78.4046C100.913 78.5225 101.049 78.5769 101.203 78.5769H105.327C105.491 78.5769 105.626 78.5225 105.735 78.4046C105.853 78.2959 105.908 78.1508 105.908 77.9967V75.3588C105.908 75.1957 105.853 75.0597 105.735 74.9509C105.617 74.8421 105.481 74.7787 105.327 74.7787H101.203C101.04 74.7787 100.904 74.8331 100.795 74.9509C100.686 75.0688 100.623 75.2047 100.623 75.3588V77.9967ZM119.994 67.146H120.547C121.309 67.2185 121.943 67.5086 122.442 67.9981C122.931 68.4967 123.221 69.0859 123.294 69.7567C123.294 69.9017 123.303 70.0286 123.303 70.1465V78.0149C123.303 78.1327 123.303 78.2596 123.294 78.4046C123.221 79.0755 122.931 79.6647 122.442 80.1633C121.943 80.6528 121.309 80.9428 120.547 81.0154H113.894C113.132 80.9428 112.498 80.6528 111.999 80.1633C111.51 79.6647 111.22 79.0755 111.147 78.4046V78.3865H111.138V75.1503C111.138 75.0959 111.147 75.0416 111.147 74.9781C111.22 74.3073 111.51 73.7181 111.999 73.2195C112.498 72.73 113.132 72.4399 113.894 72.3674H117.728C118.499 72.3674 119.206 72.6122 119.849 73.0926V67.291C119.849 67.291 119.858 67.2185 119.886 67.1913C119.913 67.1641 119.94 67.1551 119.985 67.1551L119.994 67.146ZM119.686 78.3956C119.804 78.2777 119.858 78.1418 119.858 77.9877V74.8421H115.154C114.991 74.8421 114.855 74.8965 114.746 75.0144C114.637 75.1322 114.574 75.2682 114.574 75.4223V77.9877C114.574 78.1508 114.628 78.2868 114.746 78.3956C114.864 78.5044 115 78.5678 115.154 78.5678H119.278C119.441 78.5678 119.577 78.5134 119.686 78.3956ZM191.58 76.8908V76.1656C191.58 75.9299 191.58 75.6761 191.58 75.4042C191.58 72.4399 188.616 72.4309 188.616 72.4309H188.344H187.138H183.712L182.225 72.4218H182.116C181.582 72.458 179.261 72.7572 179.252 75.377C179.252 76.1475 179.252 76.773 179.27 77.2897V78.1871C179.27 80.8884 181.718 81.1332 182.162 81.1604H182.216H182.234H183.721H186.323C186.54 81.1604 187.972 81.1695 188.725 80.1633C189.187 80.7797 190.012 81.1604 191.027 81.1695H191.58V77.1446V76.8817V76.8908ZM188.299 78.8851H186.286H183.195C182.969 78.8851 182.769 78.7673 182.651 78.586V78.5678C182.651 78.5678 182.633 78.5497 182.624 78.5406C182.624 78.5316 182.615 78.5225 182.606 78.5134C182.606 78.4953 182.588 78.4862 182.588 78.4681V78.45L182.579 78.4318V78.4137L182.57 78.3956V78.3775V78.3593V78.3412V78.3231V78.3049V78.2868V78.2687V78.2505V78.2324V78.2143V78.1962V77.7248V75.1775C182.624 74.8965 182.869 74.679 183.159 74.6518H183.177C183.177 74.6518 183.195 74.6518 183.204 74.6518H187.673C188.018 74.6608 188.299 74.9237 188.326 75.2591V75.6942V78.8398L188.299 78.8851ZM132.522 72.2949C132.522 75.2138 132.504 78.1236 132.504 81.0335H135.776V74.5792H139.366C139.702 74.6064 139.983 74.8784 139.983 75.2138V81.0426H143.246L143.264 75.105C143.264 74.9146 143.237 74.7424 143.21 74.5792H146.827C147.162 74.6064 147.434 74.8784 147.443 75.2138V79.3383C147.443 79.3383 147.434 79.3927 147.443 79.4199V81.0426H150.715L150.725 76.1022C150.725 75.8393 150.725 75.5673 150.725 75.2591C150.725 75.2047 150.725 75.1594 150.725 75.1141C150.643 72.8388 148.776 72.3946 148.05 72.313C147.933 72.3039 147.824 72.2949 147.706 72.2949H146.283H145.322H144.95C144.08 72.2768 143.173 72.6212 142.639 73.3101C141.768 72.2858 140.309 72.2858 140.309 72.2858H137.753C136.864 72.2586 135.94 72.6212 135.414 73.3283C134.961 72.6756 134.118 72.2677 133.075 72.2677H132.522V72.2949ZM194.399 72.4309H192.895V74.7062H194.399V74.7334V74.7877V74.8421V74.8965V74.9237V75.0416V75.0688V75.3226V75.4857V75.522V75.667V75.7577V75.8483V75.9571V76.0478V76.084V76.1565V76.365V76.5826V76.6279V76.6732V76.6914V76.7639V76.8092V78.0421V78.2052C194.399 81.1695 197.364 81.1785 197.364 81.1785H198.85H199.213V78.9032H198.325C197.971 78.9032 197.681 78.6131 197.681 78.2505V77.5707V74.7152H199.231V72.4399H197.699V72.0048C197.699 71.4609 197.581 70.9442 197.346 70.5997C196.901 69.9289 196.049 69.5119 194.98 69.5119H194.427V72.4309H194.399ZM173.568 66.9556L173.532 81.1241H176.804C176.813 77.2353 176.822 73.3464 176.832 69.4485C176.832 68.9046 176.714 68.3879 176.478 68.0434C176.034 67.3726 175.182 66.9556 174.121 66.9556H173.568ZM167.64 66.9375C167.631 71.6603 167.613 76.3832 167.603 81.106H170.876L170.903 69.4304C170.903 68.8865 170.785 68.3698 170.55 68.0253C170.105 67.3545 169.253 66.9375 168.184 66.9375H167.631H167.64ZM157.079 77.2443C157.342 77.3441 157.596 77.3984 158.004 77.3984C158.439 77.3984 163.814 77.4166 163.814 77.4166C164.721 77.4166 165.464 76.6914 165.482 75.7849V75.1866C165.428 73.4371 164.141 72.3855 162.527 72.3493L155.81 72.3311C155.375 72.3493 153.009 72.585 152.909 75.1322V78.0964C152.9 80.7978 155.348 81.0426 155.792 81.0697H155.846H155.864C158.974 81.0697 162.074 81.0879 165.183 81.0969C165.111 79.7191 163.95 78.9214 162.745 78.8216L156.834 78.7944C156.472 78.7944 156.182 78.4953 156.182 78.1418C156.182 78.1418 156.182 76.4919 156.182 76.356C156.272 76.7004 156.526 77.0358 157.088 77.2534L157.079 77.2443ZM156.182 75.2591C156.182 74.9146 156.454 74.6246 156.807 74.6064H161.757C162.001 74.6246 162.201 74.824 162.21 75.0688V75.5492C162.21 75.803 162.001 76.0115 161.747 76.0115C159.889 76.0115 158.04 76.0024 156.182 75.9934V75.2591Z" fill="white"/>
<path d="M54.6936 26.3906C56.0443 25.3662 57.8119 25.2393 59.4527 25.2937V44.9102C59.4527 45.5992 59.7246 46.2519 60.2051 46.7504C60.6765 47.249 61.3291 47.5391 62.009 47.5753H65.5806C65.9341 47.5572 66.2605 47.4122 66.5052 47.1584C66.75 46.9045 66.8859 46.5691 66.8859 46.2247V42.1545C66.8678 41.5562 66.8859 40.9579 66.9675 40.3687C67.0038 40.3234 67.031 40.269 67.0491 40.2146C67.0672 40.1602 67.0672 40.0968 67.0582 40.0424C67.2213 39.1631 67.6021 38.3472 68.155 37.6492C68.708 36.9512 69.4241 36.3983 70.249 36.0447C71.0196 35.7093 71.8445 35.5371 72.6875 35.5552H80.0029C81.0091 35.4918 82.0153 35.5552 83.0034 35.7456C84.0912 36.0357 85.0702 36.643 85.8135 37.4861C86.5569 38.3291 87.0282 39.3806 87.1733 40.4956C87.273 41.529 87.1733 42.5715 87.2277 43.614C87.2821 44.6564 87.2277 45.7533 87.2277 46.823C87.1733 47.7204 86.8923 48.5816 86.43 49.3521C85.9676 50.1226 85.324 50.7662 84.5535 51.2285C83.6561 51.7815 82.6227 52.0806 81.5711 52.0897H76.4132C75.6336 52.1169 74.854 51.99 74.1288 51.6999C73.4036 51.4189 72.7419 50.9838 72.1799 50.4399C71.7538 50.9566 71.228 51.3645 70.6298 51.6546C70.0315 51.9446 69.3697 52.0897 68.708 52.0987H60.2141C58.6912 52.1078 57.2227 51.5639 56.0805 50.5668C55.2738 51.2557 54.3129 51.7362 53.2795 51.9628C52.6812 52.0806 52.0648 52.1259 51.4483 52.0987H46.6711C45.2117 52.0716 43.8157 51.5277 42.7188 50.5758C41.6219 51.5458 40.2169 52.0806 38.7574 52.0987H15.66C14.7263 52.0987 13.8107 51.8721 12.9858 51.4279C12.2697 51.0382 11.6442 50.5033 11.1547 49.8506C10.6652 49.198 10.3207 48.4546 10.1485 47.6569V47.521C10.1575 47.4666 10.1575 47.4031 10.1485 47.3487C10.1303 47.2943 10.1031 47.2399 10.0578 47.1946C10.0034 46.7142 9.9853 46.2337 10.0125 45.7624V35.528C11.6986 35.4283 13.3756 35.9088 14.7625 36.8696C15.6509 37.5495 16.231 38.5467 16.3942 39.6526V43.9675C16.3852 44.3392 16.4123 44.7199 16.4758 45.0915C16.5393 45.7624 16.8384 46.3969 17.337 46.8501C17.8355 47.3125 18.4791 47.5753 19.159 47.5844H35.9201C36.319 47.6025 36.7178 47.5572 37.0985 47.4484C37.6152 47.2762 38.0594 46.9499 38.3858 46.5147C38.7121 46.0796 38.9025 45.5539 38.9206 45.019V41.9279C38.839 40.8038 38.9297 39.6798 39.2016 38.5829C39.4192 37.9756 39.7727 37.4226 40.235 36.9603C40.6973 36.498 41.2503 36.1626 41.8667 35.9541C43.0089 35.5824 44.2055 35.4374 45.402 35.519V43.7137C45.4383 45.0372 45.2117 46.3516 44.7584 47.5935H50.3877C51.0767 47.5663 51.7294 47.2671 52.2098 46.7686C52.6902 46.27 52.9622 45.6082 52.9713 44.9193V30.3429C52.9713 29.9803 52.9984 29.6177 53.0528 29.2642C53.0982 29.2188 53.1254 29.1735 53.1435 29.1101C53.1616 29.0557 53.1616 28.9922 53.1435 28.9378C53.2069 28.4302 53.3792 27.9316 53.6511 27.4965C53.9231 27.0614 54.2766 26.6807 54.7117 26.3906H54.6936ZM73.1045 41.0939V47.5844H79.6041C79.7854 47.5844 79.9576 47.5572 80.1298 47.4847C80.3021 47.4122 80.4471 47.3215 80.574 47.1946C80.7009 47.0677 80.8006 46.9136 80.8731 46.7504C80.9457 46.5873 80.9729 46.406 80.9729 46.2247V41.0848C80.9729 40.9035 80.9457 40.7313 80.8731 40.5591C80.8097 40.3959 80.7009 40.2418 80.574 40.1149C80.4471 39.988 80.293 39.8883 80.1298 39.8158C79.9667 39.7523 79.7854 39.716 79.6041 39.716H74.4552C74.2739 39.716 74.1016 39.7523 73.9385 39.8158C73.7753 39.8883 73.6212 39.988 73.5033 40.1149C73.3764 40.2418 73.2767 40.3959 73.2133 40.5591C73.1498 40.7222 73.1136 40.9035 73.1136 41.0758L73.1045 41.0939Z" fill="white"/>
<path d="M24.8546 29.9067C24.9452 29.7888 25.0631 29.6982 25.199 29.6257C25.335 29.5531 25.48 29.5169 25.6251 29.5078C25.7883 29.5259 25.9514 29.5803 26.0874 29.6619C26.2324 29.7435 26.3593 29.8523 26.4591 29.9883C27.2749 30.8222 28.127 31.629 28.9247 32.472C29.7224 31.7378 30.4567 30.9491 31.2363 30.1877C31.5173 29.9157 31.7802 29.5803 32.1972 29.5169C32.3513 29.5078 32.5054 29.535 32.6413 29.5894C32.7864 29.6529 32.9042 29.7435 33.0039 29.8613C33.9467 30.8041 34.8895 31.7378 35.8231 32.6805C35.9047 32.7621 35.9772 32.8618 36.0226 32.9706C36.0679 33.0794 36.0951 33.1972 36.0951 33.3151C36.0951 33.4329 36.0679 33.5508 36.0226 33.6596C35.9772 33.7683 35.9047 33.868 35.8231 33.9496C34.8441 34.9286 33.8742 35.9077 32.8861 36.8776C32.8045 36.9592 32.7048 37.0226 32.596 37.068C32.4872 37.1133 32.3694 37.1405 32.2516 37.1405C32.1337 37.1405 32.0159 37.1133 31.9071 37.068C31.7983 37.0226 31.6986 36.9592 31.617 36.8776C30.7558 36.0164 29.8675 35.1643 29.0335 34.276C29.0335 34.2306 28.97 34.1581 28.9519 34.1128C28.9157 34.1581 28.8703 34.2035 28.8341 34.2488C28.0636 35.1281 27.148 35.9621 26.2959 36.8323C26.2143 36.9229 26.1055 36.9955 25.9967 37.0498C25.8789 37.0952 25.7611 37.1224 25.6341 37.1224C25.5072 37.1224 25.3894 37.0952 25.2716 37.0498C25.1537 37.0045 25.054 36.932 24.9724 36.8323C24.0115 35.8714 23.0506 34.9196 22.0898 33.9587C21.9266 33.7955 21.8359 33.587 21.8359 33.3604C21.8359 33.1338 21.9085 32.9162 22.0535 32.744C22.9781 31.7831 23.9299 30.8585 24.8546 29.9157V29.9067Z" fill="white"/>
<path d="M135.293 41.7442C135.293 41.4359 135.293 41.1277 135.239 40.8105C135.194 40.7107 135.139 40.602 135.194 40.5023C134.931 38.7527 133.589 37.2026 131.985 36.4865C131.731 36.3233 131.414 36.2236 131.16 36.1692C130.951 36.1239 130.688 36.1239 130.489 36.0695H130.28C130.181 36.0695 130.072 36.0242 129.873 36.0242H127.851C126.002 35.9698 124.089 36.0242 122.24 36.0242C121.261 36.0242 120.218 35.9245 119.239 36.1692C119.209 36.1692 119.176 36.1873 119.14 36.2236C117.852 36.5318 116.765 37.3567 115.994 38.4354C115.541 39.1697 115.169 40.0399 115.07 40.9646C114.97 41.9889 115.024 43.0314 115.024 44.0557C115.024 45.1435 114.97 46.2222 115.024 47.31C115.024 47.5185 115.069 47.7179 115.124 47.9264C115.378 49.4765 116.357 50.8725 117.698 51.6975C118.106 51.9513 118.578 52.1507 119.031 52.3139C119.548 52.4589 120.119 52.5677 120.681 52.5677H128.93V62.0587C130.534 62.1131 132.338 62.0587 133.671 60.9709C135.121 59.7381 135.221 58.188 135.321 58.0882C135.375 57.7347 135.375 57.3721 135.375 57.0004C135.375 57.0004 135.321 41.9889 135.275 41.7442H135.293ZM129.102 48.0262H126.464C125.277 48.0805 124.968 48.0262 123.781 48.0262H122.593C121.877 48.0805 121.206 47.4097 121.261 46.6936C121.261 44.9985 121.206 43.2852 121.261 41.5357C121.206 40.9102 121.714 40.2938 122.349 40.2484C122.448 40.194 122.494 40.194 122.602 40.194H127.815C128.286 40.1487 128.739 40.4569 128.948 40.9102C129.048 41.1277 129.111 41.3362 129.111 41.5357V48.0262H129.102Z" fill="white"/>
<path d="M177.89 10.0111V47.0051C177.89 47.3677 177.89 47.7303 177.836 48.0839C177.736 48.1836 177.628 49.7881 176.186 50.9756C174.845 52.0543 173.041 52.1087 171.445 52.0543V15.0149C171.445 14.6523 171.445 14.2897 171.5 13.9362C171.599 13.8818 171.708 12.2864 173.15 11.0989C174.491 10.0111 176.295 9.96578 177.89 10.0111Z" fill="#FBB042"/>
<path d="M165.445 25.014V47.1869C165.445 47.5495 165.445 47.9121 165.391 48.2656C165.291 48.3653 165.182 49.9698 163.741 51.1573C162.399 52.2361 160.595 52.2905 159 52.2361V30.0088C159 29.6462 159 29.2836 159.054 28.9301C159.154 28.8757 159.263 27.2803 160.704 26.0928C162.046 25.014 163.85 24.9597 165.445 25.014Z" fill="#F89521"/>
<path d="M155.445 35.005V46.7713C155.445 47.1339 155.445 47.4965 155.391 47.85C155.291 47.9497 155.182 49.5542 153.741 50.7417C152.399 51.8204 150.595 51.8748 149 51.8204V40.0088C149 39.6462 149 39.2836 149.054 38.9301C149.154 38.8757 149.263 37.2803 150.704 36.0928C152.046 35.014 153.85 34.9597 155.445 35.014V35.005Z" fill="#F26822"/>
<path d="M145.445 42.014V47.1811C145.445 47.5437 145.445 47.9063 145.391 48.2598C145.291 48.3595 145.182 49.964 143.741 51.1515C142.399 52.2302 140.595 52.2846 139 52.2302V47.0088C139 46.6462 139 46.2836 139.054 45.9301C139.154 45.8757 139.263 44.2803 140.704 43.0928C142.046 42.014 143.85 41.9597 145.445 42.014Z" fill="#EF4237"/>
<path d="M184.55 43.3516C184.496 43.5057 184.496 43.6598 184.496 43.8139V43.3516H184.55Z" fill="#5C5C5A"/>
<path d="M213.491 40.3971C213.391 39.4725 213.029 38.5932 212.566 37.868C211.796 36.7893 210.708 35.9644 209.421 35.6471C209.385 35.6108 209.351 35.5927 209.321 35.5927C208.342 35.3389 207.309 35.4386 206.33 35.4386C204.471 35.4386 202.568 35.3842 200.709 35.4386H198.697C198.489 35.4386 198.389 35.493 198.28 35.493H198.226C197.655 35.5474 197.093 35.6471 196.576 35.91C194.98 36.6352 193.639 38.1762 193.376 39.9348C193.43 40.0345 193.376 40.1433 193.322 40.243C193.222 40.8594 193.222 41.4305 193.222 42.0469V46.1171C193.222 46.8423 192.651 47.4587 191.935 47.4587C190.901 47.5131 192.043 47.5131 190.965 47.4587H189.677C188.952 47.4587 188.336 46.8423 188.39 46.1171C188.336 45.7545 188.336 45.3919 188.336 44.984V34.2601C186.74 34.2058 184.936 34.2601 183.595 35.3389C182.154 36.5264 182.045 38.1218 181.945 38.1762C181.891 38.5388 181.891 38.9014 181.891 39.2549V61.4822C183.486 61.5366 185.29 61.4822 186.632 60.4034C188.073 59.2159 188.182 57.6205 188.281 57.5117C188.336 57.1491 188.336 56.7865 188.336 56.433V52.0002H207.871C208.442 52.0002 209.004 51.9005 209.521 51.7464C209.983 51.5923 210.445 51.3838 210.862 51.13C212.204 50.3051 213.183 48.9091 213.437 47.368C213.491 47.1596 213.536 46.9601 213.536 46.7516C213.591 45.6729 213.536 44.5851 213.536 43.5064C213.536 42.4277 213.591 41.4396 213.482 40.4152L213.491 40.3971ZM207.3 46.1171C207.354 46.8423 206.683 47.5131 205.958 47.4587H204.771C203.583 47.4587 203.275 47.5131 202.087 47.4587H199.458V40.9591C199.404 40.2339 200.075 39.5631 200.746 39.6175H205.958C206.058 39.6175 206.112 39.6175 206.212 39.6719C206.828 39.7263 207.345 40.3427 207.291 40.9591C207.345 42.7087 207.291 44.4129 207.291 46.1171H207.3Z" fill="white"/>
<path d="M202.759 24.6785C203.095 24.3159 203.72 24.325 204.046 24.6966C204.998 25.6484 205.95 26.5912 206.902 27.5521C207.273 27.8784 207.292 28.513 206.929 28.8574C206.004 29.8002 205.062 30.7248 204.128 31.6585C203.901 31.9032 203.575 32.0845 203.24 32.012C202.922 31.9667 202.705 31.7129 202.487 31.4953C201.599 30.5979 200.701 29.7186 199.813 28.8121C199.813 28.8121 199.804 28.794 199.795 28.794C199.469 28.4314 199.532 27.8512 199.886 27.543C200.837 26.5912 201.789 25.6303 202.741 24.6876L202.759 24.6785Z" fill="white"/>
<path d="M94.096 47.1108C94.0779 47.5821 94.0779 48.0716 94.1504 48.543C94.2411 49.232 94.4495 49.8756 94.939 50.4285C95.4829 51.0359 96.1447 51.3078 96.5889 51.4347C96.9061 51.5345 97.1237 51.5526 97.1509 51.5798C97.2959 51.607 97.4228 51.6251 97.5679 51.6251H105.3C105.454 51.6251 106.107 51.5526 106.279 51.5254C106.433 51.4982 106.597 51.471 106.751 51.4257C106.85 51.3985 106.95 51.3713 107.041 51.335C107.213 51.2897 107.385 51.2172 107.539 51.1447C107.594 51.1265 107.657 51.0993 107.712 51.0721C107.911 50.9724 108.101 50.8727 108.283 50.7549C108.473 50.637 108.654 50.5101 108.827 50.3651C108.981 50.2472 109.126 50.1203 109.271 49.9753C109.769 49.4858 110.177 48.8966 110.476 48.262C110.567 48.0626 110.649 47.8632 110.703 47.6456C110.748 47.5187 110.794 47.3827 110.803 47.2467C110.848 47.0745 110.893 46.9023 110.902 46.73C110.921 46.7028 110.948 46.4037 110.948 46.3312V46.0139C111.002 45.1799 110.966 44.346 110.975 43.5301C110.957 42.5511 110.993 41.5902 110.948 40.6112V40.2939C110.948 40.2214 110.921 39.9495 110.902 39.8951C110.884 39.7228 110.848 39.5506 110.803 39.3784C110.785 39.2333 110.748 39.1064 110.703 38.9795C110.649 38.7619 110.558 38.5625 110.476 38.3631C110.277 37.9461 110.041 37.5472 109.742 37.1847C109.624 37.0305 109.497 36.8855 109.37 36.7495C109.343 36.7042 109.298 36.677 109.271 36.6498C109.126 36.5048 108.981 36.3779 108.827 36.26C108.654 36.115 108.464 35.9881 108.283 35.8702C108.092 35.7524 107.911 35.6527 107.712 35.553C107.657 35.5258 107.594 35.4986 107.539 35.4804C107.367 35.4079 107.213 35.3354 107.041 35.2901C106.95 35.2629 106.85 35.2357 106.751 35.1994C106.597 35.145 106.433 35.1178 106.279 35.0997C106.107 35.0725 105.953 35.0453 105.79 35.0453H105.772C105.445 35 105.128 35 104.793 35H97.5679C97.4228 35 97.2959 35.0272 97.1509 35.0453C97.1237 35.0725 96.9061 35.0906 96.5889 35.1904C96.1447 35.3173 95.4829 35.5892 94.939 36.1966C94.4495 36.7314 94.232 37.3931 94.1504 38.0821C94.0779 38.5535 94.0779 39.0611 94.096 39.5325H103.378C104.113 39.4871 104.784 40.1489 104.747 40.8831C104.747 41.6899 104.765 42.5058 104.747 43.3126C104.747 43.5845 104.765 43.8474 104.747 44.1193V45.742C104.793 46.4762 104.113 47.138 103.378 47.0926C101.928 47.1108 100.46 47.0926 99.0092 47.1108H94.096Z" fill="white"/>
</g>
<defs>
<filter id="filter0_d_54_13154" x="8" y="10" width="207.559" height="75.1785" filterUnits="userSpaceOnUse" color-interpolation-filters="sRGB">
<feFlood flood-opacity="0" result="BackgroundImageFix"/>
<feColorMatrix in="SourceAlpha" type="matrix" values="0 0 0 0 0 0 0 0 0 0 0 0 0 0 0 0 0 0 127 0" result="hardAlpha"/>
<feOffset dy="2"/>
<feGaussianBlur stdDeviation="1"/>
<feComposite in2="hardAlpha" operator="out"/>
<feColorMatrix type="matrix" values="0 0 0 0 0 0 0 0 0 0 0 0 0 0 0 0 0 0 0.5 0"/>
<feBlend mode="normal" in2="BackgroundImageFix" result="effect1_dropShadow_54_13154"/>
<feBlend mode="normal" in="SourceGraphic" in2="effect1_dropShadow_54_13154" result="shape"/>
</filter>
</defs>
</svg>
